<?xml version="1.0" encoding="UTF-8" standalone="no"?>
<!-- Created with Inkscape (http://www.inkscape.org/) -->

<svg
   xmlns:dc="http://purl.org/dc/elements/1.1/"
   xmlns:cc="http://creativecommons.org/ns#"
   xmlns:rdf="http://www.w3.org/1999/02/22-rdf-syntax-ns#"
   xmlns:svg="http://www.w3.org/2000/svg"
   xmlns="http://www.w3.org/2000/svg"
   xmlns:sodipodi="http://sodipodi.sourceforge.net/DTD/sodipodi-0.dtd"
   xmlns:inkscape="http://www.inkscape.org/namespaces/inkscape"
   width="512"
   height="512"
   id="svg3674"
   version="1.1"
   inkscape:version="0.48.4 r9939"
   sodipodi:docname="ngforce.svg"
   inkscape:export-filename="/home/pcon/Dropbox/Art/Sites/ngforce/apple-touch-icon-72x72-precomposed.png"
   inkscape:export-xdpi="12.66"
   inkscape:export-ydpi="12.66">
  <defs
     id="defs3676" />
  <sodipodi:namedview
     id="base"
     pagecolor="#ffffff"
     bordercolor="#666666"
     borderopacity="1.0"
     inkscape:pageopacity="0.0"
     inkscape:pageshadow="2"
     inkscape:zoom="0.9899495"
     inkscape:cx="268.17583"
     inkscape:cy="318.43226"
     inkscape:document-units="px"
     inkscape:current-layer="layer1"
     showgrid="false"
     inkscape:window-width="1920"
     inkscape:window-height="1059"
     inkscape:window-x="0"
     inkscape:window-y="0"
     inkscape:window-maximized="1" />
  <metadata
     id="metadata3679">
    <rdf:RDF>
      <cc:Work
         rdf:about="">
        <dc:format>image/svg+xml</dc:format>
        <dc:type
           rdf:resource="http://purl.org/dc/dcmitype/StillImage" />
        <dc:title></dc:title>
      </cc:Work>
    </rdf:RDF>
  </metadata>
  <g
     inkscape:label="Layer 1"
     inkscape:groupmode="layer"
     id="layer1"
     transform="translate(0,-540.36218)">
    <g
       id="g3983"
       transform="matrix(1.6809521,0,0,1.6809521,-407.1356,-238.52649)">
      <path
         inkscape:connector-curvature="0"
         id="rect3791-7-0"
         d="M 394.5,463.36161 253.46861,512.16906 273.87725,700.66015 394.5,767.95089 515.12275,700.66015 535.53139,512.16906 394.5,463.36161 z"
         style="fill:#b3b3b3;fill-opacity:1;stroke:none" />
      <g
         id="g3979">
        <path
           style="fill:#dd1b16;fill-opacity:1;stroke:none"
           d="M 394.5,478.57182 265.98334,522.66218 285.62185,692.09237 394.5,751.97054 503.37815,692.09237 523.01666,522.66218 394.5,478.57182 z"
           id="rect3791"
           inkscape:connector-curvature="0" />
        <path
           style="fill:#a6120d;fill-opacity:1;stroke:none"
           d="m 523.05224,522.70386 -128.55726,-44.14902 0,273.45156 108.91389,-59.90263 z"
           id="rect3791-1"
           inkscape:connector-curvature="0"
           sodipodi:nodetypes="ccccc" />
      </g>
    </g>
    <path
       style="fill:#f2f2f2;fill-opacity:1;stroke:#b3b3b3;stroke-width:6.76702118;stroke-opacity:1"
       d="m 174.6636,677.93946 c -35.70485,0 -64.65673,29.74839 -64.65673,66.4542 0,8.75457 1.66028,17.08747 4.65232,24.74197 -16.325118,9.86892 -27.279547,28.07795 -27.279547,48.95517 0,31.36682 24.734957,56.83239 55.246277,56.83239 3.94874,0 7.81099,-0.45932 11.52509,-1.26883 9.69106,24.13408 32.81767,41.13078 59.79306,41.13078 23.45614,0 44.02101,-12.8193 55.35203,-32.03761 7.85023,3.48373 16.49393,5.44535 25.58777,5.44535 22.24812,0 41.87045,-11.54093 53.50179,-29.12991 1.48672,0.0948 2.98371,0.10556 4.49379,0.10556 39.59977,0 71.74091,-32.98698 71.74091,-73.69712 0,-40.71006 -32.14114,-73.69709 -71.74089,-73.69709 -10.64417,0 -20.73446,2.3838 -29.81718,6.66131 -11.33127,-19.21828 -31.89588,-32.03761 -55.35219,-32.03761 -16.33326,0 -31.23083,6.22427 -42.61109,16.4946 -11.84759,-15.20724 -30.00923,-24.95338 -50.43542,-24.95338 z"
       id="path4184-1"
       inkscape:connector-curvature="0" />
    <g
       id="g3830">
      <path
         d="m 127.78776,822.79799 0,-57.73988 6.30226,0 24.28226,42.81834 0,-42.91103 6.85836,0 c -4e-5,0.37079 -0.12355,0.7724 -0.37072,1.20484 -0.18541,0.43258 -0.27808,0.86509 -0.27805,1.29753 l 0,55.3302 -5.09742,0 -25.4871,-45.41339 0,45.41339 -6.20959,0"
         style="font-size:55.13565063px;font-style:normal;font-variant:normal;font-weight:normal;font-stretch:normal;line-height:125%;letter-spacing:0px;word-spacing:0px;fill:#5e0a08;fill-opacity:1;stroke:none;font-family:Inconsolata;-inkscape-font-specification:Inconsolata"
         id="path3013"
         inkscape:connector-curvature="0" />
      <path
         d="m 183.8594,787.11603 c -0.92682,0.92685 -1.60647,1.94633 -2.03898,3.05846 -0.43251,1.11219 -0.64876,2.28615 -0.64876,3.52185 0,1.23577 0.24713,2.44061 0.74145,3.61453 0.49429,1.11219 1.14305,2.10079 1.94629,2.96577 0.865,0.80326 1.85359,1.45203 2.96577,1.9463 1.17393,0.49431 2.37877,0.74146 3.61454,0.74145 1.29749,10e-6 2.50235,-0.24714 3.61453,-0.74145 1.11214,-0.49427 2.10072,-1.17393 2.96577,-2.03897 0.86499,-0.865 1.54465,-1.85358 2.03896,-2.96577 0.49427,-1.11215 0.74142,-2.28609 0.74146,-3.52186 -4e-5,-1.2357 -0.24719,-2.40966 -0.74146,-3.52185 -0.49431,-1.17392 -1.17397,-2.1934 -2.03896,-3.05846 -0.86505,-0.86498 -1.88453,-1.54462 -3.05846,-2.03896 -1.11218,-0.49426 -2.28612,-0.74141 -3.52184,-0.74145 -2.53328,4e-5 -4.72672,0.92684 -6.58031,2.78041 m 17.05319,-3.98525 c 2.96574,-2.53323 6.48759,-3.79986 10.56556,-3.79989 l 1.20484,0 0.83414,5.46814 c -0.43256,-0.0617 -0.86507,-0.0926 -1.29753,-0.0926 -0.37077,-0.0617 -0.77238,-0.0926 -1.20485,-0.0926 -2.71866,3e-5 -5.15925,0.67969 -7.32174,2.03896 1.42106,2.16258 2.13159,4.54137 2.13165,7.13639 -6e-5,1.97721 -0.40167,3.86171 -1.20486,5.6535 -0.80326,1.73005 -1.91543,3.27473 -3.33649,4.63402 -1.35933,1.29754 -2.9658,2.34792 -4.81937,3.15114 -1.85364,0.74145 -3.83083,1.11217 -5.93156,1.11215 -1.73005,2e-5 -3.52187,-0.3398 -5.37545,-1.01948 -1.9772,1.91541 -2.96579,3.52187 -2.96577,4.81939 -2e-5,1.05038 0.58695,1.8845 1.76091,2.50237 1.23574,0.55609 2.90398,0.83412 5.00475,0.83412 1.17393,0 2.34789,-0.0309 3.52185,-0.0926 1.23572,-0.12355 2.37878,-0.18534 3.42917,-0.18536 2.78038,2e-5 5.15918,0.27805 7.1364,0.83412 2.03893,0.49431 3.67628,1.23576 4.91206,2.22434 1.23569,0.92681 2.1625,2.03896 2.78042,3.33649 0.61781,1.29753 0.92676,2.68774 0.92679,4.17063 -3e-5,1.66824 -0.40165,3.27469 -1.20484,4.81937 -0.80328,1.60645 -2.00812,2.99665 -3.61453,4.17061 -1.60651,1.23574 -3.64547,2.19342 -6.11691,2.8731 -2.40972,0.74144 -5.25191,1.11215 -8.52659,1.11217 -3.39831,-2e-5 -6.33319,-0.27806 -8.80464,-0.83412 -2.4097,-0.49432 -4.35599,-1.20486 -5.83887,-2.13165 -1.48289,-0.92683 -2.62595,-2.0081 -3.42918,-3.24382 -0.74143,-1.17396 -1.11217,-2.44059 -1.11215,-3.79989 -2e-5,-3.33651 2.31699,-6.45674 6.95102,-9.36072 -2.28613,-1.17396 -3.42917,-3.12023 -3.42917,-5.83887 0,-2.65683 1.60645,-5.31366 4.81937,-7.97052 -1.97719,-1.29749 -3.52185,-2.96574 -4.63402,-5.00473 -1.11216,-2.03895 -1.66824,-4.20149 -1.66824,-6.48764 0,-2.10072 0.43251,-4.04701 1.29753,-5.83885 0.865,-1.85357 2.00806,-3.46004 3.42917,-4.81939 1.48287,-1.35927 3.15112,-2.40965 5.00473,-3.15113 1.91538,-0.80318 3.86167,-1.20481 5.83888,-1.20484 4.13969,3e-5 7.56887,1.35935 10.28752,4.07794 m -16.49711,37.44287 c -3.52187,1.97719 -5.2828,4.13971 -5.28278,6.48763 -2e-5,1.23572 0.33982,2.25522 1.01948,3.05845 0.74143,0.86501 1.69912,1.54466 2.8731,2.03897 1.23572,0.55606 2.65681,0.95769 4.2633,1.20484 1.66822,0.24714 3.39824,0.37072 5.19009,0.37072 3.76898,0 6.88921,-0.67966 9.36072,-2.03896 2.47145,-1.35932 3.70719,-3.18204 3.70722,-5.46816 -0.12355,-1.66824 -0.83416,-2.96577 -2.13165,-3.89256 -1.23577,-0.92681 -3.21296,-1.39021 -5.93154,-1.39021 -0.30896,0 -0.6179,0.0309 -0.92681,0.0926 -0.30896,0 -0.6179,0 -0.9268,0 -2.34793,0 -4.44869,-0.0309 -6.30227,-0.0926 -1.85362,-0.12355 -3.49099,-0.24714 -4.91206,-0.37072"
         style="font-size:55.13565063px;font-style:normal;font-variant:normal;font-weight:normal;font-stretch:normal;line-height:125%;letter-spacing:0px;word-spacing:0px;fill:#5e0a08;fill-opacity:1;stroke:none;font-family:Inconsolata;-inkscape-font-specification:Inconsolata"
         id="path3015"
         inkscape:connector-curvature="0" />
      <path
         d="m 227.92443,764.96542 33.27227,0 -1.11217,5.6535 -26.78463,0 -3.7072,18.16536 21.59451,0 -1.11216,5.65351 -21.59452,0 -5.65352,28.3602 -6.48761,0 11.58503,-57.83257"
         style="font-size:55.13565063px;font-style:italic;font-variant:normal;font-weight:normal;font-stretch:normal;line-height:125%;letter-spacing:0px;word-spacing:0px;fill:#333333;fill-opacity:1;stroke:none;font-family:Inconsolata;-inkscape-font-specification:Inconsolata Italic"
         id="path3017"
         inkscape:connector-curvature="0" />
      <path
         d="m 277.52489,779.51625 c 2.59502,3e-5 4.94293,0.52523 7.04371,1.57555 2.16252,0.98864 3.89253,2.44063 5.19011,4.35599 1.35927,1.91543 2.28606,4.26333 2.78041,7.04371 0.49425,2.71865 0.40157,5.7771 -0.27804,9.17536 -0.74149,3.46009 -1.88455,6.54943 -3.42918,9.26803 -1.48292,2.71864 -3.30564,5.06654 -5.46814,7.04371 -2.10078,1.91539 -4.41779,3.39828 -6.95102,4.44866 -2.53329,0.9886 -5.12835,1.48288 -7.78516,1.48288 -2.71864,0 -5.15923,-0.55607 -7.32176,-1.66824 -2.16254,-1.11215 -3.95437,-2.62593 -5.37545,-4.54133 -1.42111,-1.97719 -2.37881,-4.32509 -2.8731,-7.04371 -0.4943,-2.71862 -0.4325,-5.6535 0.18536,-8.80464 0.61787,-3.15111 1.73004,-6.11689 3.33651,-8.89731 1.66823,-2.78038 3.61452,-5.12829 5.83885,-7.04372 2.22432,-1.97715 4.634,-3.52181 7.22907,-4.63403 2.65681,-1.17391 5.28276,-1.76088 7.87783,-1.76091 m 7.97052,22.33597 c 0.55605,-2.65681 0.67961,-5.00472 0.37072,-7.04371 -0.30897,-2.10072 -0.92684,-3.86165 -1.8536,-5.28278 -0.86505,-1.42108 -1.97722,-2.50233 -3.33649,-3.24382 -1.35935,-0.7414 -2.87313,-1.11213 -4.54134,-1.11217 -1.66828,4e-5 -3.33653,0.37077 -5.00475,1.11217 -1.66826,0.74149 -3.21294,1.82274 -4.63402,3.24382 -1.42111,1.42113 -2.68774,3.15116 -3.79989,5.19009 -1.05039,1.97722 -1.82273,4.23244 -2.31701,6.76568 -0.49432,2.47149 -0.61788,4.7267 -0.37073,6.76567 0.30892,2.03897 0.86501,3.79991 1.66826,5.28277 0.865,1.48291 1.97715,2.62595 3.33649,3.42918 1.42107,0.80324 2.99665,1.20486 4.7267,1.20484 1.73,2e-5 3.42914,-0.33982 5.09742,-1.01948 1.66821,-0.74144 3.21289,-1.79181 4.63401,-3.15113 1.42106,-1.4211 2.65682,-3.15113 3.70723,-5.19011 1.05034,-2.03894 1.82267,-4.35595 2.317,-6.95102"
         style="font-size:55.13565063px;font-style:italic;font-variant:normal;font-weight:normal;font-stretch:normal;line-height:125%;letter-spacing:0px;word-spacing:0px;fill:#333333;fill-opacity:1;stroke:none;font-family:Inconsolata;-inkscape-font-specification:Inconsolata Italic"
         id="path3019"
         inkscape:connector-curvature="0" />
      <path
         d="m 302.59046,780.44304 6.95102,0 -1.76091,8.15588 c 1.85358,-2.96574 4.35595,-5.22095 7.50711,-6.76566 3.1511,-1.60642 6.33313,-2.40965 9.54608,-2.4097 4.57219,5e-5 8.03225,1.54471 10.3802,4.63402 l -4.35599,6.39494 c -0.49433,-0.92676 -0.95774,-1.6991 -1.39019,-2.31701 -0.43256,-0.61783 -0.92685,-1.14301 -1.48289,-1.57555 -0.55613,-0.43248 -1.20489,-0.77232 -1.94629,-1.0195 -0.74148,-0.2471 -1.66828,-0.37068 -2.78041,-0.37072 -2.039,4e-5 -4.04708,0.49434 -6.02423,1.48289 -1.97721,0.92684 -3.79991,2.19347 -5.46814,3.79989 -1.60649,1.54471 -3.02758,3.33652 -4.2633,5.37547 -1.17397,2.03899 -2.0081,4.17064 -2.50236,6.39495 l -4.07794,20.66772 -6.76567,0 8.43391,-42.44762"
         style="font-size:55.13565063px;font-style:italic;font-variant:normal;font-weight:normal;font-stretch:normal;line-height:125%;letter-spacing:0px;word-spacing:0px;fill:#333333;fill-opacity:1;stroke:none;font-family:Inconsolata;-inkscape-font-specification:Inconsolata Italic"
         id="path3021"
         inkscape:connector-curvature="0" />
      <path
         d="m 373.99621,787.48675 -5.83885,5.46816 c -0.2472,-0.18535 -0.33987,-0.37071 -0.27805,-0.5561 0.0617,-0.24711 0.0926,-0.55604 0.0926,-0.92679 -5e-5,-0.3707 -0.15448,-0.83411 -0.4634,-1.39022 -0.24719,-0.55604 -0.83417,-1.29749 -1.76093,-2.22431 -1.73007,-1.73001 -4.4178,-2.59503 -8.06319,-2.59506 -1.79185,3e-5 -3.58368,0.37075 -5.37547,1.11217 -1.79184,0.74147 -3.46009,1.82274 -5.00473,3.2438 -1.48292,1.35935 -2.78043,3.0276 -3.89258,5.00475 -1.11219,1.91541 -1.91541,4.07796 -2.4097,6.48762 -0.4943,2.40971 -0.58699,4.63405 -0.27803,6.67299 0.3707,2.03898 1.05036,3.79991 2.03896,5.28278 0.98857,1.4829 2.2861,2.65684 3.89258,3.52186 1.66823,0.80323 3.58361,1.20484 5.74619,1.20484 4.26326,0 8.27941,-1.73002 12.04844,-5.19011 l 2.96577,4.54135 c -5.06656,4.44865 -10.65828,6.67299 -16.77514,6.67299 -3.02758,0 -5.71531,-0.55609 -8.0632,-1.66824 -2.34792,-1.11217 -4.26331,-2.65685 -5.74618,-4.63403 -1.4829,-1.97717 -2.50238,-4.29418 -3.05846,-6.95103 -0.4943,-2.7186 -0.40161,-5.68437 0.27805,-8.89731 0.61785,-3.15111 1.69912,-6.08599 3.24382,-8.80464 1.60643,-2.71859 3.55272,-5.0356 5.83885,-6.95103 2.2861,-1.97715 4.85025,-3.52181 7.69247,-4.63403 2.84217,-1.11212 5.80795,-1.66819 8.89732,-1.66824 3.33645,5e-5 6.24045,0.71059 8.71197,2.13165 2.47142,1.35935 4.32502,3.27474 5.56081,5.74618"
         style="font-size:55.13565063px;font-style:italic;font-variant:normal;font-weight:normal;font-stretch:normal;line-height:125%;letter-spacing:0px;word-spacing:0px;fill:#333333;fill-opacity:1;stroke:none;font-family:Inconsolata;-inkscape-font-specification:Inconsolata Italic"
         id="path3023"
         inkscape:connector-curvature="0" />
      <path
         d="m 400.29204,779.42356 c 2.2243,5e-5 4.29416,0.40166 6.20959,1.20484 1.91536,0.80328 3.49091,2.03901 4.7267,3.70722 1.29747,1.6065 2.16249,3.67636 2.59505,6.20959 0.43246,2.5333 0.30889,5.52996 -0.37072,8.99 -0.0618,0.49432 -0.1854,1.0195 -0.37073,1.57556 -0.12355,0.49431 -0.24718,0.98862 -0.37072,1.48288 l -30.12113,0 c -0.4943,2.96581 -0.4943,5.46817 0,7.50712 0.49429,1.9772 1.29751,3.58365 2.4097,4.81939 1.11215,1.23573 2.44055,2.13165 3.98525,2.68772 1.60643,0.4943 3.2438,0.74145 4.91206,0.74144 4.38685,10e-6 8.3412,-1.57556 11.8631,-4.72669 l 2.96577,3.61454 c -4.44871,4.32507 -9.82415,6.48761 -16.1264,6.48761 -3.08935,0 -5.83887,-0.4634 -8.24855,-1.39019 -2.34792,-0.98861 -4.23242,-2.4097 -5.65349,-4.2633 -1.42111,-1.8536 -2.34792,-4.13972 -2.78041,-6.85835 -0.43253,-2.7804 -0.30895,-5.93153 0.37071,-9.45341 0.74144,-3.5836 1.88448,-6.76563 3.42918,-9.54608 1.60643,-2.78037 3.46005,-5.09738 5.56082,-6.95102 2.16251,-1.91536 4.51042,-3.36735 7.04371,-4.35598 2.59502,-0.98856 5.25185,-1.48284 7.97051,-1.48289 m -16.40443,17.98 23.26278,0 c 0.0617,-0.24713 0.12355,-0.46339 0.18536,-0.64876 0.0617,-0.24712 0.12355,-0.52516 0.18536,-0.83412 0.3089,-1.54465 0.3089,-2.99664 0,-4.35599 -0.30898,-1.42106 -0.86506,-2.62592 -1.66825,-3.61453 -0.74148,-1.05035 -1.73007,-1.88447 -2.96577,-2.50237 -1.17398,-0.61783 -2.5333,-0.92678 -4.07794,-0.92681 -2.90401,3e-5 -5.7462,1.05043 -8.52659,3.15113 -2.78043,2.03901 -4.91208,5.28281 -6.39495,9.73145"
         style="font-size:55.13565063px;font-style:italic;font-variant:normal;font-weight:normal;font-stretch:normal;line-height:125%;letter-spacing:0px;word-spacing:0px;fill:#333333;fill-opacity:1;stroke:none;font-family:Inconsolata;-inkscape-font-specification:Inconsolata Italic"
         id="path3025"
         inkscape:connector-curvature="0" />
    </g>
  </g>
</svg>
