<?xml version="1.0" encoding="UTF-8" standalone="no"?>
<!-- Created with Inkscape (http://www.inkscape.org/) -->

<svg
   xmlns:dc="http://purl.org/dc/elements/1.1/"
   xmlns:cc="http://creativecommons.org/ns#"
   xmlns:rdf="http://www.w3.org/1999/02/22-rdf-syntax-ns#"
   xmlns:svg="http://www.w3.org/2000/svg"
   xmlns="http://www.w3.org/2000/svg"
   xmlns:sodipodi="http://sodipodi.sourceforge.net/DTD/sodipodi-0.dtd"
   xmlns:inkscape="http://www.inkscape.org/namespaces/inkscape"
   width="744.09448819"
   height="1052.3622047"
   id="svg3674"
   version="1.1"
   inkscape:version="0.48.4 r9939"
   sodipodi:docname="ngforce.svg"
   inkscape:export-filename="/home/pcon/Dropbox/Art/Sites/ngforce/ngforce.png"
   inkscape:export-xdpi="90"
   inkscape:export-ydpi="90">
  <defs
     id="defs3676" />
  <sodipodi:namedview
     id="base"
     pagecolor="#ffffff"
     bordercolor="#666666"
     borderopacity="1.0"
     inkscape:pageopacity="0.0"
     inkscape:pageshadow="2"
     inkscape:zoom="1.979899"
     inkscape:cx="466.4943"
     inkscape:cy="496.18518"
     inkscape:document-units="px"
     inkscape:current-layer="layer1"
     showgrid="false"
     inkscape:window-width="1920"
     inkscape:window-height="1059"
     inkscape:window-x="0"
     inkscape:window-y="0"
     inkscape:window-maximized="1" />
  <metadata
     id="metadata3679">
    <rdf:RDF>
      <cc:Work
         rdf:about="">
        <dc:format>image/svg+xml</dc:format>
        <dc:type
           rdf:resource="http://purl.org/dc/dcmitype/StillImage" />
        <dc:title></dc:title>
      </cc:Work>
    </rdf:RDF>
  </metadata>
  <g
     inkscape:label="Layer 1"
     inkscape:groupmode="layer"
     id="layer1">
    <g
       id="g3983"
       transform="translate(-22.452759,-89.475159)">
      <path
         inkscape:connector-curvature="0"
         id="rect3791-7-0"
         d="M 394.5,463.36161 253.46861,512.16906 273.87725,700.66015 394.5,767.95089 515.12275,700.66015 535.53139,512.16906 394.5,463.36161 z"
         style="fill:#b3b3b3;fill-opacity:1;stroke:none" />
      <g
         id="g3979">
        <path
           style="fill:#dd1b16;fill-opacity:1;stroke:none"
           d="M 394.5,478.57182 265.98334,522.66218 285.62185,692.09237 394.5,751.97054 503.37815,692.09237 523.01666,522.66218 394.5,478.57182 z"
           id="rect3791"
           inkscape:connector-curvature="0" />
        <path
           style="fill:#a6120d;fill-opacity:1;stroke:none"
           d="m 523.05224,522.70386 -128.55726,-44.14902 0,273.45156 108.91389,-59.90263 z"
           id="rect3791-1"
           inkscape:connector-curvature="0"
           sodipodi:nodetypes="ccccc" />
      </g>
    </g>
    <path
       style="fill:#f2f2f2;fill-opacity:1;stroke:#b3b3b3;stroke-width:4.02570724;stroke-opacity:1"
       d="m 323.66014,455.7313 c -21.24085,0 -38.46435,17.69735 -38.46435,39.53367 0,5.2081 0.9877,10.16535 2.76767,14.71902 -9.71183,5.87103 -16.22863,16.7036 -16.22863,29.12348 0,18.66015 14.71485,33.80964 32.86606,33.80964 2.34911,0 4.64677,-0.27325 6.85629,-0.75483 5.76522,14.35739 19.52326,24.46874 35.57095,24.46874 13.95408,0 26.18814,-7.62621 32.92897,-19.0592 4.67011,2.07247 9.81226,3.23944 15.22219,3.23944 13.23543,0 24.90877,-6.86571 31.82827,-17.32941 0.88445,0.0564 1.77501,0.0628 2.67336,0.0628 23.55794,0 42.67873,-19.62399 42.67873,-43.84249 0,-24.21845 -19.12079,-43.84247 -42.67872,-43.84247 -6.33223,0 -12.33495,1.41813 -17.73827,3.96282 -6.74098,-11.43297 -18.97489,-19.0592 -32.92907,-19.0592 -9.71667,0 -18.57925,3.70282 -25.34938,9.81265 -7.04814,-9.0468 -17.85252,-14.84479 -30.00408,-14.84479 z"
       id="path4184-1"
       inkscape:connector-curvature="0" />
    <path
       inkscape:connector-curvature="0"
       id="path3013"
       style="font-size:55.13565063000000777px;font-style:normal;font-variant:normal;font-weight:normal;font-stretch:normal;line-height:125%;letter-spacing:0px;word-spacing:0px;fill:#5e0a08;fill-opacity:1;stroke:none;font-family:Inconsolata;-inkscape-font-specification:Inconsolata"
       d="m 295.77366,541.90778 0,-34.34951 3.74922,0 14.44554,25.47267 0,-25.52781 4.08004,0 c -2e-5,0.22058 -0.0735,0.4595 -0.22054,0.71676 -0.1103,0.25734 -0.16543,0.51464 -0.16541,0.7719 l 0,32.91599 -3.03246,0 -15.1623,-27.01647 0,27.01647 -3.69409,0" />
    <path
       inkscape:connector-curvature="0"
       id="path3015"
       style="font-size:55.13565063000000777px;font-style:normal;font-variant:normal;font-weight:normal;font-stretch:normal;line-height:125%;letter-spacing:0px;word-spacing:0px;fill:#5e0a08;fill-opacity:1;stroke:none;font-family:Inconsolata;-inkscape-font-specification:Inconsolata"
       d="m 329.13073,520.68055 c -0.55137,0.55138 -0.95569,1.15787 -1.21299,1.81948 -0.2573,0.66164 -0.38595,1.36003 -0.38595,2.09515 0,0.73516 0.14702,1.45192 0.44109,2.15029 0.29405,0.66164 0.68,1.24976 1.15785,1.76434 0.51459,0.47786 1.1027,0.86381 1.76434,1.15785 0.69837,0.29407 1.41513,0.4411 2.15029,0.44109 0.77188,10e-6 1.48865,-0.14702 2.15029,-0.44109 0.66161,-0.29404 1.24972,-0.69837 1.76434,-1.21298 0.51458,-0.51459 0.91891,-1.1027 1.21298,-1.76434 0.29404,-0.66162 0.44107,-1.36 0.44109,-2.09516 -2e-5,-0.73512 -0.14705,-1.43351 -0.44109,-2.09515 -0.29407,-0.69837 -0.6984,-1.30486 -1.21298,-1.81948 -0.51462,-0.51458 -1.12111,-0.9189 -1.81948,-1.21298 -0.66164,-0.29404 -1.36002,-0.44107 -2.09515,-0.44109 -1.50705,2e-5 -2.81193,0.55138 -3.91463,1.65407 m 10.14496,-2.37083 c 1.76432,-1.50702 3.85947,-2.26054 6.28546,-2.26056 l 0.71676,0 0.49623,3.253 c -0.25733,-0.0367 -0.51463,-0.0551 -0.7719,-0.0551 -0.22057,-0.0367 -0.45949,-0.0551 -0.71677,-0.0551 -1.61733,2e-5 -3.06924,0.40435 -4.35571,1.21298 0.84539,1.28652 1.26809,2.70167 1.26812,4.24545 -3e-5,1.17624 -0.23895,2.29733 -0.71677,3.36327 -0.47786,1.02921 -1.13949,1.94814 -1.98488,2.75678 -0.80867,0.77191 -1.76436,1.39678 -2.86705,1.87462 -1.10273,0.44109 -2.27896,0.66163 -3.52869,0.66162 -1.02921,10e-6 -2.09516,-0.20215 -3.19786,-0.60649 -1.17624,1.13948 -1.76435,2.09516 -1.76434,2.86706 -10e-6,0.62487 0.34918,1.12109 1.04757,1.48866 0.73514,0.33082 1.72758,0.49622 2.97733,0.49622 0.69837,0 1.39676,-0.0184 2.09515,-0.0551 0.73513,-0.0735 1.41514,-0.11026 2.04002,-0.11027 1.65405,10e-6 3.0692,0.16541 4.24545,0.49622 1.21296,0.29406 2.18702,0.73515 2.92219,1.32326 0.73511,0.55136 1.28647,1.21298 1.65407,1.98488 0.36754,0.7719 0.55133,1.59894 0.55135,2.48111 -2e-5,0.99244 -0.23894,1.94812 -0.71676,2.86705 -0.47787,0.95568 -1.19463,1.78271 -2.15029,2.4811 -0.95571,0.73514 -2.16869,1.30487 -3.63895,1.70921 -1.43355,0.44108 -3.12437,0.66162 -5.07248,0.66163 -2.02166,-10e-6 -3.76762,-0.16542 -5.23789,-0.49622 -1.43353,-0.29407 -2.59138,-0.71677 -3.47355,-1.26812 -0.88217,-0.55137 -1.56218,-1.19462 -2.04002,-1.92975 -0.44108,-0.69839 -0.66163,-1.45191 -0.66162,-2.26056 -1e-5,-1.98489 1.37838,-3.84112 4.13517,-5.5687 -1.36002,-0.69839 -2.04002,-1.85623 -2.04002,-3.47355 0,-1.58055 0.95568,-3.1611 2.86705,-4.74167 -1.17623,-0.77188 -2.09515,-1.76432 -2.75678,-2.97732 -0.66163,-1.21297 -0.99244,-2.49947 -0.99244,-3.8595 0,-1.24972 0.2573,-2.40757 0.7719,-3.47354 0.51459,-1.10269 1.1946,-2.05838 2.04002,-2.86706 0.88216,-0.80863 1.8746,-1.4335 2.97732,-1.87461 1.13946,-0.47781 2.29731,-0.71674 3.47355,-0.71676 2.46271,2e-5 4.50273,0.80868 6.12006,2.42597 m -9.81415,22.2748 c -2.09516,1.17623 -3.14274,2.46272 -3.14273,3.8595 -10e-6,0.73513 0.20216,1.34163 0.60649,1.81947 0.44108,0.5146 1.01081,0.91892 1.70921,1.21299 0.73513,0.3308 1.58054,0.56973 2.53624,0.71676 0.99243,0.14702 2.02162,0.22054 3.08759,0.22054 2.24217,0 4.0984,-0.40433 5.5687,-1.21298 1.47027,-0.80866 2.20541,-1.893 2.20543,-3.25301 -0.0735,-0.99244 -0.49624,-1.76434 -1.26812,-2.31569 -0.73516,-0.55136 -1.91139,-0.82704 -3.52868,-0.82704 -0.1838,0 -0.36759,0.0184 -0.55136,0.0551 -0.1838,0 -0.36759,0 -0.55135,0 -1.39679,0 -2.64653,-0.0184 -3.74923,-0.0551 -1.10272,-0.0735 -2.07679,-0.14702 -2.92219,-0.22054" />
    <path
       inkscape:connector-curvature="0"
       id="path3017"
       style="font-size:55.13565063000000066px;font-style:italic;font-variant:normal;font-weight:normal;font-stretch:normal;line-height:125%;letter-spacing:0px;word-spacing:0px;fill:#333333;fill-opacity:1;stroke:none;font-family:Inconsolata;-inkscape-font-specification:Inconsolata Italic"
       d="m 355.34506,507.50313 19.7937,0 -0.66163,3.36327 -15.9342,0 -2.20542,10.80659 12.8466,0 -0.66163,3.36328 -12.8466,0 -3.36328,16.87151 -3.85949,0 6.89195,-34.40465" />
    <path
       inkscape:connector-curvature="0"
       id="path3019"
       style="font-size:55.13565063000000066px;font-style:italic;font-variant:normal;font-weight:normal;font-stretch:normal;line-height:125%;letter-spacing:0px;word-spacing:0px;fill:#333333;fill-opacity:1;stroke:none;font-family:Inconsolata;-inkscape-font-specification:Inconsolata Italic"
       d="m 384.85242,516.15943 c 1.54378,2e-5 2.94055,0.31246 4.19031,0.9373 1.28648,0.58814 2.31567,1.45193 3.0876,2.59138 0.80863,1.13949 1.35998,2.53626 1.65407,4.19031 0.29403,1.61733 0.23889,3.4368 -0.16541,5.45843 -0.44111,2.05841 -1.12112,3.89626 -2.04002,5.51356 -0.88219,1.61732 -1.96653,3.01409 -3.253,4.19031 -1.24976,1.13947 -2.62815,2.02164 -4.13517,2.64651 -1.50706,0.58812 -3.05086,0.88217 -4.6314,0.88217 -1.61732,0 -3.06923,-0.33081 -4.35572,-0.99244 -1.2865,-0.66162 -2.35246,-1.56217 -3.19786,-2.70164 -0.84542,-1.17623 -1.41516,-2.573 -1.70921,-4.19031 -0.29406,-1.61731 -0.2573,-3.36327 0.11027,-5.23789 0.36757,-1.8746 1.0292,-3.63894 1.98489,-5.29302 0.99243,-1.65405 2.15028,-3.05082 3.47354,-4.19031 1.32325,-1.17621 2.75677,-2.09513 4.30058,-2.75679 1.58054,-0.69836 3.14272,-1.04755 4.68653,-1.04757 m 4.74167,13.28769 c 0.33079,-1.58054 0.4043,-2.97731 0.22054,-4.19031 -0.18381,-1.24972 -0.55138,-2.2973 -1.10271,-3.14273 -0.51462,-0.8454 -1.17625,-1.48864 -1.98488,-1.92975 -0.80868,-0.44106 -1.70923,-0.66161 -2.70165,-0.66163 -0.99246,2e-5 -1.9849,0.22057 -2.97733,0.66163 -0.99245,0.44111 -1.91138,1.08435 -2.75678,1.92975 -0.84542,0.84543 -1.59894,1.87463 -2.26056,3.08759 -0.62488,1.17625 -1.08434,2.51788 -1.37839,4.02491 -0.29407,1.47029 -0.36758,2.81192 -0.22055,4.0249 0.18378,1.21299 0.5146,2.26057 0.99245,3.14273 0.51459,0.88218 1.17621,1.56218 1.98488,2.04002 0.8454,0.47785 1.78271,0.71677 2.81192,0.71676 1.02918,10e-6 2.04,-0.20216 3.03246,-0.60649 0.99242,-0.44108 1.91135,-1.06595 2.75678,-1.87461 0.84539,-0.84541 1.58054,-1.87461 2.20543,-3.0876 0.62485,-1.21297 1.08431,-2.59136 1.37839,-4.13517" />
    <path
       inkscape:connector-curvature="0"
       id="path3021"
       style="font-size:55.13565063000000066px;font-style:italic;font-variant:normal;font-weight:normal;font-stretch:normal;line-height:125%;letter-spacing:0px;word-spacing:0px;fill:#333333;fill-opacity:1;stroke:none;font-family:Inconsolata;-inkscape-font-specification:Inconsolata Italic"
       d="m 399.76395,516.71078 4.13517,0 -1.04757,4.85194 c 1.1027,-1.76432 2.59136,-3.10595 4.46599,-4.0249 1.87459,-0.95566 3.76758,-1.4335 5.67897,-1.43353 2.72,3e-5 4.77839,0.91895 6.17519,2.75678 l -2.59138,3.80436 c -0.29408,-0.55133 -0.56976,-1.0108 -0.82703,-1.37839 -0.25733,-0.36755 -0.55138,-0.67998 -0.88217,-0.9373 -0.33084,-0.25728 -0.71679,-0.45945 -1.15785,-0.6065 -0.44111,-0.147 -0.99246,-0.22052 -1.65407,-0.22054 -1.213,2e-5 -2.40761,0.29408 -3.58382,0.88217 -1.17624,0.55138 -2.26057,1.3049 -3.253,2.26056 -0.9557,0.91895 -1.80111,1.9849 -2.53624,3.19787 -0.6984,1.213 -1.19462,2.48112 -1.48866,3.80436 l -2.42597,12.29525 -4.0249,0 5.01734,-25.25213" />
    <path
       inkscape:connector-curvature="0"
       id="path3023"
       style="font-size:55.13565063000000066px;font-style:italic;font-variant:normal;font-weight:normal;font-stretch:normal;line-height:125%;letter-spacing:0px;word-spacing:0px;fill:#333333;fill-opacity:1;stroke:none;font-family:Inconsolata;-inkscape-font-specification:Inconsolata Italic"
       d="m 442.2433,520.90109 -3.47354,3.25301 c -0.14706,-0.11026 -0.20219,-0.22053 -0.16541,-0.33082 0.0367,-0.14701 0.0551,-0.33079 0.0551,-0.55135 -3e-5,-0.22053 -0.0919,-0.49621 -0.27568,-0.82704 -0.14705,-0.33079 -0.49625,-0.77188 -1.04758,-1.32325 -1.02922,-1.02918 -2.62815,-1.54378 -4.7968,-1.5438 -1.06597,2e-5 -2.13193,0.22056 -3.19787,0.66163 -1.06597,0.4411 -2.05841,1.08435 -2.97732,1.92974 -0.88219,0.80868 -1.65408,1.80112 -2.3157,2.97733 -0.66164,1.13948 -1.13948,2.42598 -1.43353,3.85949 -0.29406,1.43354 -0.3492,2.7568 -0.1654,3.96977 0.22053,1.21299 0.62486,2.26057 1.21298,3.14273 0.5881,0.88218 1.36,1.58056 2.3157,2.09516 0.99243,0.47784 2.13189,0.71676 3.41841,0.71676 2.53622,0 4.92543,-1.02919 7.16763,-3.0876 l 1.76434,2.70165 c -3.0141,2.64651 -6.34062,3.96977 -9.97955,3.96977 -1.80111,0 -3.40004,-0.33082 -4.7968,-0.99244 -1.39678,-0.66163 -2.53625,-1.58056 -3.41841,-2.75679 -0.88218,-1.17622 -1.48867,-2.55461 -1.81948,-4.13517 -0.29406,-1.6173 -0.23892,-3.38164 0.16541,-5.29302 0.36756,-1.8746 1.01081,-3.62056 1.92975,-5.23789 0.95567,-1.61729 2.11352,-2.99568 3.47354,-4.13517 1.36,-1.17621 2.88542,-2.09513 4.57626,-2.75679 1.69081,-0.6616 3.45515,-0.99241 5.29302,-0.99244 1.98486,3e-5 3.71245,0.42273 5.18276,1.26812 1.47025,0.80868 2.57296,1.94815 3.30813,3.41841" />
    <path
       inkscape:connector-curvature="0"
       id="path3025"
       style="font-size:55.13565063000000066px;font-style:italic;font-variant:normal;font-weight:normal;font-stretch:normal;line-height:125%;letter-spacing:0px;word-spacing:0px;fill:#333333;fill-opacity:1;stroke:none;font-family:Inconsolata;-inkscape-font-specification:Inconsolata Italic"
       d="m 457.88671,516.10429 c 1.32324,3e-5 2.5546,0.23895 3.69409,0.71676 1.13945,0.47787 2.07675,1.21301 2.81192,2.20543 0.77187,0.95571 1.28647,2.18707 1.5438,3.69409 0.25727,1.50706 0.18376,3.28978 -0.22054,5.34816 -0.0368,0.29407 -0.1103,0.6065 -0.22055,0.9373 -0.0735,0.29407 -0.14705,0.58813 -0.22054,0.88217 l -17.91909,0 c -0.29406,1.76436 -0.29406,3.25302 0,4.46599 0.29405,1.17624 0.77189,2.13192 1.43353,2.86706 0.66162,0.73514 1.45189,1.26812 2.37083,1.59893 0.95567,0.29406 1.92974,0.44109 2.92219,0.44108 2.60974,10e-6 4.96219,-0.9373 7.05737,-2.81191 l 1.76434,2.15029 c -2.64654,2.57299 -5.8444,3.85949 -9.59361,3.85949 -1.83786,0 -3.47355,-0.27568 -4.90707,-0.82703 -1.39678,-0.58812 -2.51787,-1.43353 -3.36327,-2.53624 -0.84542,-1.10271 -1.39678,-2.46272 -1.65407,-4.08004 -0.25731,-1.65406 -0.18379,-3.52867 0.22054,-5.62384 0.44108,-2.13189 1.12108,-4.02488 2.04002,-5.67897 0.95567,-1.65405 2.05839,-3.03244 3.30814,-4.13517 1.28648,-1.13945 2.68325,-2.00324 4.19031,-2.59138 1.54378,-0.58809 3.12433,-0.88214 4.74166,-0.88217 m -9.75901,10.69632 13.83905,0 c 0.0367,-0.14702 0.0735,-0.27567 0.11027,-0.38595 0.0367,-0.14701 0.0735,-0.31242 0.11027,-0.49622 0.18377,-0.91891 0.18377,-1.7827 0,-2.59138 -0.18381,-0.84539 -0.51462,-1.56216 -0.99244,-2.15029 -0.44111,-0.62485 -1.02922,-1.12107 -1.76434,-1.48866 -0.6984,-0.36755 -1.50706,-0.55134 -2.42597,-0.55136 -1.7276,2e-5 -3.41842,0.6249 -5.07248,1.87461 -1.65408,1.21301 -2.9222,3.14275 -3.80436,5.78925" />
  </g>
</svg>
